<svg width="136" height="136" viewBox="0 0 136 136" fill="none" xmlns="http://www.w3.org/2000/svg">
<g filter="url(#filter0_d)">
<rect x="4" width="128" height="128" rx="10" fill="#0A7AC4"/>
</g>
<path d="M86.6667 7L73.3333 19V48.3333L86.6667 36.3333V7ZM53.3333 15C48.1333 15 42.5333 16.0667 38.6667 19V58.0827C38.6667 58.7493 39.3333 59.416 40 59.416C40.2667 59.416 40.4 59.2507 40.6667 59.2507C44.2667 57.5173 49.4667 56.3333 53.3333 56.3333C58.5333 56.3333 64.1333 57.4 68 60.3333C71.6 58.0667 78.1333 56.3333 82.6667 56.3333C87.0667 56.3333 91.6 57.168 95.3333 59.168C95.6 59.3013 95.7333 59.2507 96 59.2507C96.6667 59.2507 97.3333 58.584 97.3333 57.9173V19C95.7333 17.8 94 17 92 16.3333V52.3333C89.0667 51.4 85.8667 51 82.6667 51C78.1333 51 71.6 52.7333 68 55V19C64.1333 16.0667 58.5333 15 53.3333 15Z" fill="#FFFFFD"/>
<path d="M46.342 82.1466C46.942 82.1466 47.446 82.0746 47.854 81.9306C48.262 81.7866 48.586 81.5946 48.826 81.3546C49.074 81.1146 49.25 80.8346 49.354 80.5146C49.466 80.1946 49.522 79.8546 49.522 79.4946C49.522 79.1186 49.462 78.7826 49.342 78.4866C49.222 78.1826 49.034 77.9266 48.778 77.7186C48.522 77.5026 48.19 77.3386 47.782 77.2266C47.382 77.1146 46.898 77.0586 46.33 77.0586H43.078V82.1466H46.342ZM43.078 69.8106V74.8266H45.646C46.75 74.8266 47.582 74.6266 48.142 74.2266C48.71 73.8266 48.994 73.1906 48.994 72.3186C48.994 71.4146 48.738 70.7706 48.226 70.3866C47.714 70.0026 46.914 69.8106 45.826 69.8106H43.078ZM45.826 67.3146C46.962 67.3146 47.934 67.4226 48.742 67.6386C49.55 67.8546 50.21 68.1626 50.722 68.5626C51.242 68.9626 51.622 69.4466 51.862 70.0146C52.102 70.5826 52.222 71.2226 52.222 71.9346C52.222 72.3426 52.162 72.7346 52.042 73.1106C51.922 73.4786 51.734 73.8266 51.478 74.1546C51.23 74.4746 50.91 74.7666 50.518 75.0306C50.134 75.2946 49.674 75.5186 49.138 75.7026C51.522 76.2386 52.714 77.5266 52.714 79.5666C52.714 80.3026 52.574 80.9826 52.294 81.6066C52.014 82.2306 51.606 82.7706 51.07 83.2266C50.534 83.6746 49.874 84.0266 49.09 84.2826C48.306 84.5386 47.41 84.6666 46.402 84.6666H39.85V67.3146H45.826ZM58.0399 72.3546V84.6666H55.0759V72.3546H58.0399ZM60.7999 67.1226L57.8359 70.2546C57.6839 70.4146 57.5359 70.5266 57.3919 70.5906C57.2559 70.6466 57.0759 70.6746 56.8519 70.6746H55.0759L56.7799 67.7586C56.8999 67.5506 57.0399 67.3946 57.1999 67.2906C57.3599 67.1786 57.5999 67.1226 57.9199 67.1226H60.7999ZM64.6585 81.4746C64.9945 81.8826 65.3585 82.1706 65.7505 82.3386C66.1505 82.5066 66.5705 82.5906 67.0105 82.5906C67.4665 82.5906 67.8745 82.5106 68.2345 82.3506C68.6025 82.1826 68.9145 81.9266 69.1705 81.5826C69.4265 81.2306 69.6225 80.7866 69.7585 80.2506C69.8945 79.7066 69.9625 79.0586 69.9625 78.3066C69.9625 76.9546 69.7385 75.9786 69.2905 75.3786C68.8425 74.7706 68.1985 74.4666 67.3585 74.4666C66.7905 74.4666 66.2945 74.5986 65.8705 74.8626C65.4465 75.1186 65.0425 75.4826 64.6585 75.9546V81.4746ZM64.6585 73.8666C65.1545 73.3466 65.7025 72.9346 66.3025 72.6306C66.9105 72.3186 67.6025 72.1626 68.3785 72.1626C69.0905 72.1626 69.7305 72.3026 70.2985 72.5826C70.8745 72.8626 71.3625 73.2666 71.7625 73.7946C72.1705 74.3146 72.4825 74.9466 72.6985 75.6906C72.9145 76.4346 73.0225 77.2706 73.0225 78.1986C73.0225 79.1986 72.8985 80.1066 72.6505 80.9226C72.4025 81.7386 72.0465 82.4386 71.5825 83.0226C71.1265 83.5986 70.5745 84.0466 69.9265 84.3666C69.2785 84.6866 68.5585 84.8466 67.7665 84.8466C67.3825 84.8466 67.0345 84.8066 66.7225 84.7266C66.4105 84.6546 66.1225 84.5506 65.8585 84.4146C65.5945 84.2786 65.3505 84.1146 65.1265 83.9226C64.9105 83.7226 64.7025 83.5026 64.5025 83.2626L64.3705 84.0906C64.3225 84.2986 64.2385 84.4466 64.1185 84.5346C64.0065 84.6226 63.8505 84.6666 63.6505 84.6666H61.6945V66.8346H64.6585V73.8666ZM78.3117 66.8346V84.6666H75.3477V66.8346H78.3117ZM84.3368 72.3546V84.6666H81.3608V72.3546H84.3368ZM84.7448 68.7666C84.7448 69.0226 84.6928 69.2626 84.5888 69.4866C84.4848 69.7106 84.3448 69.9066 84.1688 70.0746C84.0008 70.2426 83.8008 70.3786 83.5688 70.4826C83.3368 70.5786 83.0888 70.6266 82.8248 70.6266C82.5688 70.6266 82.3248 70.5786 82.0928 70.4826C81.8688 70.3786 81.6728 70.2426 81.5048 70.0746C81.3368 69.9066 81.2008 69.7106 81.0968 69.4866C81.0008 69.2626 80.9528 69.0226 80.9528 68.7666C80.9528 68.5026 81.0008 68.2546 81.0968 68.0226C81.2008 67.7906 81.3368 67.5906 81.5048 67.4226C81.6728 67.2546 81.8688 67.1226 82.0928 67.0266C82.3248 66.9226 82.5688 66.8706 82.8248 66.8706C83.0888 66.8706 83.3368 66.9226 83.5688 67.0266C83.8008 67.1226 84.0008 67.2546 84.1688 67.4226C84.3448 67.5906 84.4848 67.7906 84.5888 68.0226C84.6928 68.2546 84.7448 68.5026 84.7448 68.7666ZM93.8625 79.4106C93.0065 79.4506 92.2865 79.5266 91.7025 79.6386C91.1185 79.7426 90.6505 79.8786 90.2985 80.0466C89.9465 80.2146 89.6945 80.4106 89.5425 80.6346C89.3905 80.8586 89.3145 81.1026 89.3145 81.3666C89.3145 81.8866 89.4665 82.2586 89.7705 82.4826C90.0825 82.7066 90.4865 82.8186 90.9825 82.8186C91.5905 82.8186 92.1145 82.7106 92.5545 82.4946C93.0025 82.2706 93.4385 81.9346 93.8625 81.4866V79.4106ZM87.0705 74.0706C88.4865 72.7746 90.1905 72.1266 92.1825 72.1266C92.9025 72.1266 93.5465 72.2466 94.1145 72.4866C94.6825 72.7186 95.1625 73.0466 95.5545 73.4706C95.9465 73.8866 96.2425 74.3866 96.4425 74.9706C96.6505 75.5546 96.7545 76.1946 96.7545 76.8906V84.6666H95.4105C95.1305 84.6666 94.9145 84.6266 94.7625 84.5466C94.6105 84.4586 94.4905 84.2866 94.4025 84.0306L94.1385 83.1426C93.8265 83.4226 93.5225 83.6706 93.2265 83.8866C92.9305 84.0946 92.6225 84.2706 92.3025 84.4146C91.9825 84.5586 91.6385 84.6666 91.2705 84.7386C90.9105 84.8186 90.5105 84.8586 90.0705 84.8586C89.5505 84.8586 89.0705 84.7906 88.6305 84.6546C88.1905 84.5106 87.8105 84.2986 87.4905 84.0186C87.1705 83.7386 86.9225 83.3906 86.7465 82.9746C86.5705 82.5586 86.4825 82.0746 86.4825 81.5226C86.4825 81.2106 86.5345 80.9026 86.6385 80.5986C86.7425 80.2866 86.9105 79.9906 87.1425 79.7106C87.3825 79.4306 87.6905 79.1666 88.0665 78.9186C88.4425 78.6706 88.9025 78.4546 89.4465 78.2706C89.9985 78.0866 90.6385 77.9386 91.3665 77.8266C92.0945 77.7066 92.9265 77.6346 93.8625 77.6106V76.8906C93.8625 76.0666 93.6865 75.4586 93.3345 75.0666C92.9825 74.6666 92.4745 74.4666 91.8105 74.4666C91.3305 74.4666 90.9305 74.5226 90.6105 74.6346C90.2985 74.7466 90.0225 74.8746 89.7825 75.0186C89.5425 75.1546 89.3225 75.2786 89.1225 75.3906C88.9305 75.5026 88.7145 75.5586 88.4745 75.5586C88.2665 75.5586 88.0905 75.5066 87.9465 75.4026C87.8025 75.2906 87.6865 75.1626 87.5985 75.0186L87.0705 74.0706ZM61.2688 96.3146L54.2608 113.667H51.3448L44.3367 96.3146H46.9288C47.2088 96.3146 47.4368 96.3826 47.6128 96.5186C47.7888 96.6546 47.9208 96.8306 48.0088 97.0466L52.1008 107.631C52.2368 107.975 52.3648 108.355 52.4848 108.771C52.6128 109.179 52.7328 109.607 52.8448 110.055C52.9408 109.607 53.0448 109.179 53.1568 108.771C53.2688 108.355 53.3928 107.975 53.5288 107.631L57.5968 97.0466C57.6608 96.8626 57.7847 96.6946 57.9688 96.5426C58.1608 96.3906 58.3928 96.3146 58.6648 96.3146H61.2688ZM68.6304 106.095C68.6304 105.711 68.5744 105.351 68.4624 105.015C68.3584 104.671 68.1984 104.371 67.9824 104.115C67.7664 103.859 67.4904 103.659 67.1544 103.515C66.8264 103.363 66.4424 103.287 66.0024 103.287C65.1464 103.287 64.4704 103.531 63.9744 104.019C63.4864 104.507 63.1744 105.199 63.0384 106.095H68.6304ZM62.9784 107.883C63.0264 108.515 63.1384 109.063 63.3144 109.527C63.4904 109.983 63.7224 110.363 64.0104 110.667C64.2984 110.963 64.6384 111.187 65.0304 111.339C65.4304 111.483 65.8704 111.555 66.3504 111.555C66.8304 111.555 67.2424 111.499 67.5864 111.387C67.9384 111.275 68.2424 111.151 68.4984 111.015C68.7624 110.879 68.9904 110.755 69.1824 110.643C69.3824 110.531 69.5744 110.475 69.7584 110.475C70.0064 110.475 70.1904 110.567 70.3104 110.751L71.1624 111.831C70.8344 112.215 70.4664 112.539 70.0584 112.803C69.6504 113.059 69.2224 113.267 68.7744 113.427C68.3344 113.579 67.8824 113.687 67.4184 113.751C66.9624 113.815 66.5184 113.847 66.0864 113.847C65.2304 113.847 64.4344 113.707 63.6984 113.427C62.9624 113.139 62.3224 112.719 61.7784 112.167C61.2344 111.607 60.8064 110.919 60.4944 110.103C60.1824 109.279 60.0264 108.327 60.0264 107.247C60.0264 106.407 60.1624 105.619 60.4344 104.883C60.7064 104.139 61.0944 103.495 61.5984 102.951C62.1104 102.399 62.7304 101.963 63.4584 101.643C64.1944 101.323 65.0224 101.163 65.9424 101.163C66.7184 101.163 67.4344 101.287 68.0904 101.535C68.7464 101.783 69.3104 102.147 69.7824 102.627C70.2544 103.099 70.6224 103.683 70.8864 104.379C71.1584 105.067 71.2944 105.855 71.2944 106.743C71.2944 107.191 71.2464 107.495 71.1504 107.655C71.0544 107.807 70.8704 107.883 70.5984 107.883H62.9784ZM81.0307 103.755C80.9507 103.883 80.8667 103.975 80.7787 104.031C80.6907 104.079 80.5787 104.103 80.4427 104.103C80.2987 104.103 80.1427 104.063 79.9747 103.983C79.8147 103.903 79.6267 103.815 79.4107 103.719C79.1947 103.615 78.9467 103.523 78.6667 103.443C78.3947 103.363 78.0707 103.323 77.6947 103.323C77.1107 103.323 76.6507 103.447 76.3147 103.695C75.9867 103.943 75.8227 104.267 75.8227 104.667C75.8227 104.931 75.9067 105.155 76.0747 105.339C76.2507 105.515 76.4787 105.671 76.7587 105.807C77.0467 105.943 77.3707 106.067 77.7307 106.179C78.0907 106.283 78.4547 106.399 78.8227 106.527C79.1987 106.655 79.5667 106.803 79.9267 106.971C80.2867 107.131 80.6067 107.339 80.8867 107.595C81.1747 107.843 81.4027 108.143 81.5707 108.495C81.7467 108.847 81.8347 109.271 81.8347 109.767C81.8347 110.359 81.7267 110.907 81.5107 111.411C81.3027 111.907 80.9907 112.339 80.5747 112.707C80.1587 113.067 79.6427 113.351 79.0267 113.559C78.4187 113.759 77.7147 113.859 76.9147 113.859C76.4907 113.859 76.0747 113.819 75.6667 113.739C75.2667 113.667 74.8787 113.563 74.5027 113.427C74.1347 113.291 73.7907 113.131 73.4707 112.947C73.1587 112.763 72.8827 112.563 72.6427 112.347L73.3267 111.219C73.4147 111.083 73.5187 110.979 73.6387 110.907C73.7587 110.835 73.9107 110.799 74.0947 110.799C74.2787 110.799 74.4507 110.851 74.6107 110.955C74.7787 111.059 74.9707 111.171 75.1867 111.291C75.4027 111.411 75.6547 111.523 75.9427 111.627C76.2387 111.731 76.6107 111.783 77.0587 111.783C77.4107 111.783 77.7107 111.743 77.9587 111.663C78.2147 111.575 78.4227 111.463 78.5827 111.327C78.7507 111.191 78.8707 111.035 78.9427 110.859C79.0227 110.675 79.0627 110.487 79.0627 110.295C79.0627 110.007 78.9747 109.771 78.7987 109.587C78.6307 109.403 78.4027 109.243 78.1147 109.107C77.8347 108.971 77.5107 108.851 77.1427 108.747C76.7827 108.635 76.4107 108.515 76.0267 108.387C75.6507 108.259 75.2787 108.111 74.9107 107.943C74.5507 107.767 74.2267 107.547 73.9387 107.283C73.6587 107.019 73.4307 106.695 73.2547 106.311C73.0867 105.927 73.0027 105.463 73.0027 104.919C73.0027 104.415 73.1027 103.935 73.3027 103.479C73.5027 103.023 73.7947 102.627 74.1787 102.291C74.5707 101.947 75.0547 101.675 75.6307 101.475C76.2147 101.267 76.8867 101.163 77.6467 101.163C78.4947 101.163 79.2667 101.303 79.9627 101.583C80.6587 101.863 81.2387 102.231 81.7027 102.687L81.0307 103.755ZM88.1696 113.859C87.0976 113.859 86.2736 113.559 85.6976 112.959C85.1296 112.351 84.8456 111.515 84.8456 110.451V103.575H83.5856C83.4256 103.575 83.2896 103.523 83.1776 103.419C83.0656 103.315 83.0096 103.159 83.0096 102.951V101.775L84.9896 101.451L85.6136 98.0906C85.6536 97.9306 85.7296 97.8066 85.8416 97.7186C85.9536 97.6306 86.0976 97.5866 86.2736 97.5866H87.8096V101.463H91.0976V103.575H87.8096V110.247C87.8096 110.631 87.9016 110.931 88.0856 111.147C88.2776 111.363 88.5376 111.471 88.8656 111.471C89.0496 111.471 89.2016 111.451 89.3216 111.411C89.4496 111.363 89.5576 111.315 89.6456 111.267C89.7416 111.219 89.8256 111.175 89.8976 111.135C89.9696 111.087 90.0416 111.063 90.1136 111.063C90.2016 111.063 90.2736 111.087 90.3296 111.135C90.3856 111.175 90.4456 111.239 90.5096 111.327L91.3976 112.767C90.9656 113.127 90.4696 113.399 89.9096 113.583C89.3496 113.767 88.7696 113.859 88.1696 113.859Z" fill="#FFFFFD"/>
<defs>
<filter id="filter0_d" x="0" y="0" width="136" height="136" filterUnits="userSpaceOnUse" color-interpolation-filters="sRGB">
<feFlood flood-opacity="0" result="BackgroundImageFix"/>
<feColorMatrix in="SourceAlpha" type="matrix" values="0 0 0 0 0 0 0 0 0 0 0 0 0 0 0 0 0 0 127 0"/>
<feOffset dy="4"/>
<feGaussianBlur stdDeviation="2"/>
<feColorMatrix type="matrix" values="0 0 0 0 0 0 0 0 0 0 0 0 0 0 0 0 0 0 0.25 0"/>
<feBlend mode="normal" in2="BackgroundImageFix" result="effect1_dropShadow"/>
<feBlend mode="normal" in="SourceGraphic" in2="effect1_dropShadow" result="shape"/>
</filter>
</defs>
</svg>
